<svg xmlns="http://www.w3.org/2000/svg" xmlns:xlink="http://www.w3.org/1999/xlink" width="500"
  zoomAndPan="magnify" viewBox="0 0 375 374.999991" height="500" preserveAspectRatio="xMidYMid meet"
  version="1.2">
  <defs>
    <clipPath id="09810f62b3">
      <path
        d="M 3.75 0 L 371.25 0 C 372.246094 0 373.199219 0.394531 373.902344 1.097656 C 374.605469 1.800781 375 2.753906 375 3.75 L 375 371.25 C 375 372.246094 374.605469 373.199219 373.902344 373.902344 C 373.199219 374.605469 372.246094 375 371.25 375 L 3.75 375 C 2.753906 375 1.800781 374.605469 1.097656 373.902344 C 0.394531 373.199219 0 372.246094 0 371.25 L 0 3.75 C 0 2.753906 0.394531 1.800781 1.097656 1.097656 C 1.800781 0.394531 2.753906 0 3.75 0 Z M 3.75 0 " />
    </clipPath>
    <clipPath id="dbfee94e2d">
      <path
        d="M 210.457031 119.898438 L 266.273438 119.898438 L 266.273438 134.007812 L 210.457031 134.007812 Z M 210.457031 119.898438 " />
    </clipPath>
    <clipPath id="e42f22383a">
      <path
        d="M 95.527344 312.992188 L 294.363281 312.992188 L 294.363281 325.636719 L 95.527344 325.636719 Z M 95.527344 312.992188 " />
    </clipPath>
    <clipPath id="64251a58f2">
      <path
        d="M 212.683594 67.359375 L 261.5 67.359375 L 261.5 116.179688 L 212.683594 116.179688 Z M 212.683594 67.359375 " />
    </clipPath>
    <clipPath id="5ccd370c93">
      <path
        d="M 237.09375 67.359375 C 223.613281 67.359375 212.683594 78.289062 212.683594 91.769531 C 212.683594 105.25 223.613281 116.179688 237.09375 116.179688 C 250.574219 116.179688 261.5 105.25 261.5 91.769531 C 261.5 78.289062 250.574219 67.359375 237.09375 67.359375 Z M 237.09375 67.359375 " />
    </clipPath>
    <clipPath id="61ddcf49fe">
      <path
        d="M 211.15625 124.800781 L 261.496094 124.800781 L 261.496094 307.878906 L 211.15625 307.878906 Z M 211.15625 124.800781 " />
    </clipPath>
    <clipPath id="8a77529ff6">
      <path
        d="M 257.746094 307.878906 L 214.90625 307.878906 C 213.910156 307.878906 212.957031 307.484375 212.253906 306.78125 C 211.550781 306.078125 211.15625 305.125 211.15625 304.128906 L 211.15625 128.738281 C 211.15625 127.742188 211.550781 126.789062 212.253906 126.085938 C 212.957031 125.382812 213.910156 124.988281 214.90625 124.988281 L 257.746094 124.988281 C 258.742188 124.988281 259.695312 125.382812 260.398438 126.085938 C 261.101562 126.789062 261.496094 127.742188 261.496094 128.738281 L 261.496094 304.128906 C 261.496094 305.125 261.101562 306.078125 260.398438 306.78125 C 259.695312 307.484375 258.742188 307.878906 257.746094 307.878906 Z M 257.746094 307.878906 " />
    </clipPath>
    <clipPath id="3cdc7a41d7">
      <path
        d="M 113.519531 110.640625 L 163.863281 110.640625 L 163.863281 307.878906 L 113.519531 307.878906 Z M 113.519531 110.640625 " />
    </clipPath>
    <clipPath id="9015546b5c">
      <path
        d="M 160.113281 307.878906 L 117.269531 307.878906 C 116.277344 307.878906 115.320312 307.484375 114.617188 306.78125 C 113.914062 306.078125 113.519531 305.121094 113.519531 304.128906 L 113.519531 114.53125 C 113.519531 113.535156 113.914062 112.582031 114.617188 111.878906 C 115.320312 111.175781 116.277344 110.78125 117.269531 110.78125 L 160.113281 110.78125 C 161.105469 110.78125 162.058594 111.175781 162.761719 111.878906 C 163.464844 112.582031 163.863281 113.535156 163.863281 114.53125 L 163.863281 304.128906 C 163.863281 305.121094 163.464844 306.078125 162.761719 306.78125 C 162.058594 307.484375 161.105469 307.878906 160.113281 307.878906 Z M 160.113281 307.878906 " />
    </clipPath>
    <clipPath id="2495e3daf9">
      <path
        d="M 139.601562 251.941406 L 191.496094 251.941406 L 191.496094 307.886719 L 139.601562 307.886719 Z M 139.601562 251.941406 " />
    </clipPath>
    <clipPath id="96e4cf7440">
      <path
        d="M 143.351562 251.941406 L 187.746094 251.941406 C 189.816406 251.941406 191.496094 253.621094 191.496094 255.691406 L 191.496094 304.132812 C 191.496094 306.203125 189.816406 307.882812 187.746094 307.882812 L 143.351562 307.882812 C 141.28125 307.882812 139.601562 306.203125 139.601562 304.132812 L 139.601562 255.691406 C 139.601562 253.621094 141.28125 251.941406 143.351562 251.941406 Z M 143.351562 251.941406 " />
    </clipPath>
    <clipPath id="00768b6a57">
      <path
        d="M 189.960938 67.324219 L 211.148438 67.324219 L 211.148438 168.464844 L 189.960938 168.464844 Z M 189.960938 67.324219 " />
    </clipPath>
    <clipPath id="684a0677aa">
      <path
        d="M 207.398438 168.464844 L 193.710938 168.464844 C 192.71875 168.464844 191.761719 168.070312 191.058594 167.367188 C 190.355469 166.664062 189.960938 165.710938 189.960938 164.714844 L 189.960938 71.105469 C 189.960938 70.109375 190.355469 69.15625 191.058594 68.453125 C 191.761719 67.75 192.71875 67.355469 193.710938 67.355469 L 207.398438 67.355469 C 208.394531 67.355469 209.347656 67.75 210.050781 68.453125 C 210.753906 69.15625 211.148438 70.109375 211.148438 71.105469 L 211.148438 164.714844 C 211.148438 165.710938 210.753906 166.664062 210.050781 167.367188 C 209.347656 168.070312 208.394531 168.464844 207.398438 168.464844 Z M 207.398438 168.464844 " />
    </clipPath>
    <clipPath id="817a882f18">
      <path
        d="M 113.460938 72.671875 L 190.6875 72.671875 L 190.6875 123.492188 L 113.460938 123.492188 Z M 113.460938 72.671875 " />
    </clipPath>
    <clipPath id="2116f6f71f">
      <path
        d="M 190.6875 76.421875 L 190.6875 119.742188 C 190.6875 120.738281 190.292969 121.691406 189.589844 122.394531 C 188.886719 123.097656 187.933594 123.492188 186.9375 123.492188 L 117.265625 123.492188 C 116.269531 123.492188 115.316406 123.097656 114.613281 122.394531 C 113.910156 121.691406 113.515625 120.738281 113.515625 119.742188 L 113.515625 76.421875 C 113.515625 75.425781 113.910156 74.472656 114.613281 73.769531 C 115.316406 73.066406 116.269531 72.671875 117.265625 72.671875 L 186.9375 72.671875 C 187.933594 72.671875 188.886719 73.066406 189.589844 73.769531 C 190.292969 74.472656 190.6875 75.425781 190.6875 76.421875 Z M 190.6875 76.421875 " />
    </clipPath>
    <clipPath id="7033929569">
      <path
        d="M 281.761719 145.96875 L 303.890625 145.96875 L 303.890625 298.890625 L 281.761719 298.890625 Z M 281.761719 145.96875 " />
    </clipPath>
    <clipPath id="3c8df13464">
      <path
        d="M 300.140625 298.890625 L 285.511719 298.890625 C 284.515625 298.890625 283.5625 298.496094 282.859375 297.792969 C 282.15625 297.089844 281.761719 296.136719 281.761719 295.140625 L 281.761719 149.722656 C 281.761719 148.730469 282.15625 147.773438 282.859375 147.070312 C 283.5625 146.367188 284.515625 145.972656 285.511719 145.972656 L 300.140625 145.972656 C 301.136719 145.972656 302.089844 146.367188 302.792969 147.070312 C 303.496094 147.773438 303.890625 148.730469 303.890625 149.722656 L 303.890625 295.140625 C 303.890625 296.136719 303.496094 297.089844 302.792969 297.792969 C 302.089844 298.496094 301.136719 298.890625 300.140625 298.890625 Z M 300.140625 298.890625 " />
    </clipPath>
    <clipPath id="7ba349e6c3">
      <path
        d="M 92.085938 172.089844 L 282.832031 172.089844 L 282.832031 222.433594 L 92.085938 222.433594 Z M 92.085938 172.089844 " />
    </clipPath>
    <clipPath id="b65375477a">
      <path
        d="M 92.085938 218.683594 L 92.085938 175.839844 C 92.085938 174.84375 92.480469 173.890625 93.183594 173.1875 C 93.886719 172.484375 94.84375 172.089844 95.835938 172.089844 L 278.941406 172.089844 C 279.9375 172.089844 280.890625 172.484375 281.59375 173.1875 C 282.296875 173.890625 282.691406 174.84375 282.691406 175.839844 L 282.691406 218.683594 C 282.691406 219.675781 282.296875 220.628906 281.59375 221.332031 C 280.890625 222.035156 279.9375 222.433594 278.941406 222.433594 L 95.835938 222.433594 C 94.84375 222.433594 93.886719 222.035156 93.183594 221.332031 C 92.480469 220.628906 92.085938 219.675781 92.085938 218.683594 Z M 92.085938 218.683594 " />
    </clipPath>
    <clipPath id="1cdb720e11">
      <path
        d="M 139.601562 195.492188 L 188.417969 195.492188 L 188.417969 244.3125 L 139.601562 244.3125 Z M 139.601562 195.492188 " />
    </clipPath>
    <clipPath id="bb2203d592">
      <path
        d="M 164.011719 195.492188 C 150.53125 195.492188 139.601562 206.421875 139.601562 219.902344 C 139.601562 233.382812 150.53125 244.3125 164.011719 244.3125 C 177.492188 244.3125 188.417969 233.382812 188.417969 219.902344 C 188.417969 206.421875 177.492188 195.492188 164.011719 195.492188 Z M 164.011719 195.492188 " />
    </clipPath>
  </defs>
  <g id="48fedce65e">
    <g clip-rule="nonzero" clip-path="url(#09810f62b3)">
      <rect x="0" width="375" y="0" height="374.999991"
        style="fill:#e7a034;fill-opacity:1;stroke:none;" />
    </g>
    <g clip-rule="nonzero" clip-path="url(#dbfee94e2d)">
      <path style=" stroke:none;fill-rule:nonzero;fill:#e7a034;fill-opacity:1;"
        d="M 210.457031 119.898438 L 266.289062 119.898438 L 266.289062 134.007812 L 210.457031 134.007812 Z M 210.457031 119.898438 " />
    </g>
    <g clip-rule="nonzero" clip-path="url(#e42f22383a)">
      <path style=" stroke:none;fill-rule:nonzero;fill:#e7a034;fill-opacity:1;"
        d="M 95.527344 325.636719 L 95.527344 312.992188 L 294.347656 312.992188 L 294.347656 325.636719 Z M 95.527344 325.636719 " />
    </g>
    <g clip-rule="nonzero" clip-path="url(#64251a58f2)">
      <g clip-rule="nonzero" clip-path="url(#5ccd370c93)">
        <path style=" stroke:none;fill-rule:nonzero;fill:#ffffff;fill-opacity:1;"
          d="M 212.683594 67.359375 L 261.5 67.359375 L 261.5 116.179688 L 212.683594 116.179688 Z M 212.683594 67.359375 " />
      </g>
    </g>
    <g clip-rule="nonzero" clip-path="url(#61ddcf49fe)">
      <g clip-rule="nonzero" clip-path="url(#8a77529ff6)">
        <path style=" stroke:none;fill-rule:nonzero;fill:#ffffff;fill-opacity:1;"
          d="M 261.496094 307.878906 L 211.15625 307.878906 L 211.15625 124.996094 L 261.496094 124.996094 Z M 261.496094 307.878906 " />
      </g>
    </g>
    <g clip-rule="nonzero" clip-path="url(#3cdc7a41d7)">
      <g clip-rule="nonzero" clip-path="url(#9015546b5c)">
        <path style=" stroke:none;fill-rule:nonzero;fill:#ffffff;fill-opacity:1;"
          d="M 163.863281 307.878906 L 113.519531 307.878906 L 113.519531 110.839844 L 163.863281 110.839844 Z M 163.863281 307.878906 " />
      </g>
    </g>
    <g clip-rule="nonzero" clip-path="url(#2495e3daf9)">
      <g clip-rule="nonzero" clip-path="url(#96e4cf7440)">
        <path style=" stroke:none;fill-rule:nonzero;fill:#545454;fill-opacity:1;"
          d="M 139.601562 251.941406 L 191.496094 251.941406 L 191.496094 307.886719 L 139.601562 307.886719 Z M 139.601562 251.941406 " />
      </g>
    </g>
    <g clip-rule="nonzero" clip-path="url(#00768b6a57)">
      <g clip-rule="nonzero" clip-path="url(#684a0677aa)">
        <path style=" stroke:none;fill-rule:nonzero;fill:#e7a034;fill-opacity:1;"
          d="M 211.148438 168.464844 L 189.960938 168.464844 L 189.960938 67.324219 L 211.148438 67.324219 Z M 211.148438 168.464844 " />
      </g>
    </g>
    <g clip-rule="nonzero" clip-path="url(#817a882f18)">
      <g clip-rule="nonzero" clip-path="url(#2116f6f71f)">
        <path style=" stroke:none;fill-rule:nonzero;fill:#ffffff;fill-opacity:1;"
          d="M 190.6875 72.671875 L 190.6875 123.492188 L 113.460938 123.492188 L 113.460938 72.671875 Z M 190.6875 72.671875 " />
      </g>
    </g>
    <g clip-rule="nonzero" clip-path="url(#7033929569)">
      <g clip-rule="nonzero" clip-path="url(#3c8df13464)">
        <path style=" stroke:none;fill-rule:nonzero;fill:#e7a034;fill-opacity:1;"
          d="M 303.890625 298.890625 L 281.761719 298.890625 L 281.761719 145.96875 L 303.890625 145.96875 Z M 303.890625 298.890625 " />
      </g>
    </g>
    <g clip-rule="nonzero" clip-path="url(#7ba349e6c3)">
      <g clip-rule="nonzero" clip-path="url(#b65375477a)">
        <path style=" stroke:none;fill-rule:nonzero;fill:#ffffff;fill-opacity:1;"
          d="M 92.085938 222.433594 L 92.085938 172.089844 L 282.636719 172.089844 L 282.636719 222.433594 Z M 92.085938 222.433594 " />
      </g>
    </g>
    <g clip-rule="nonzero" clip-path="url(#1cdb720e11)">
      <g clip-rule="nonzero" clip-path="url(#bb2203d592)">
        <path style=" stroke:none;fill-rule:nonzero;fill:#545454;fill-opacity:1;"
          d="M 139.601562 195.492188 L 188.417969 195.492188 L 188.417969 244.3125 L 139.601562 244.3125 Z M 139.601562 195.492188 " />
      </g>
    </g>
  </g>
</svg>