<svg xmlns="http://www.w3.org/2000/svg" version="1.1" xmlns:xlink="http://www.w3.org/1999/xlink" width="1000" height="1000"><style>
    #light-icon {
      display: inline;
    }
    #dark-icon {
      display: none;
    }

    @media (prefers-color-scheme: dark) {
      #light-icon {
        display: none;
      }
      #dark-icon {
        display: inline;
      }
    }
  </style><g id="light-icon"><svg xmlns="http://www.w3.org/2000/svg" version="1.1" xmlns:xlink="http://www.w3.org/1999/xlink" width="1000" height="1000"><g><g transform="matrix(2,0,0,2,0,0)"><svg xmlns="http://www.w3.org/2000/svg" version="1.1" xmlns:xlink="http://www.w3.org/1999/xlink" width="500" height="500"><svg xmlns="http://www.w3.org/2000/svg" xmlns:xlink="http://www.w3.org/1999/xlink" width="500" zoomAndPan="magnify" viewBox="0 0 375 374.999991" height="500" preserveAspectRatio="xMidYMid meet" version="1.2"><defs><clipPath id="988b1bfff8"><path d="M 208.921875 117.992188 L 264.738281 117.992188 L 264.738281 132.101562 L 208.921875 132.101562 Z M 208.921875 117.992188 "></path></clipPath><clipPath id="966a30bcb1"><path d="M 211.660156 69.503906 L 262 69.503906 L 262 119.847656 L 211.660156 119.847656 Z M 211.660156 69.503906 "></path></clipPath><clipPath id="41e7c23676"><path d="M 236.828125 69.503906 C 222.929688 69.503906 211.660156 80.773438 211.660156 94.675781 C 211.660156 108.578125 222.929688 119.847656 236.828125 119.847656 C 250.730469 119.847656 262 108.578125 262 94.675781 C 262 80.773438 250.730469 69.503906 236.828125 69.503906 Z M 236.828125 69.503906 "></path></clipPath><clipPath id="37f8ef3fc6"><path d="M 212.660156 132 L 263.003906 132 L 263.003906 305.972656 L 212.660156 305.972656 Z M 212.660156 132 "></path></clipPath><clipPath id="d49e79aed6"><path d="M 259.253906 305.972656 L 216.410156 305.972656 C 215.417969 305.972656 214.460938 305.574219 213.757812 304.871094 C 213.054688 304.167969 212.660156 303.214844 212.660156 302.222656 L 212.660156 135.847656 C 212.660156 134.851562 213.054688 133.898438 213.757812 133.195312 C 214.460938 132.492188 215.417969 132.097656 216.410156 132.097656 L 259.253906 132.097656 C 260.246094 132.097656 261.199219 132.492188 261.90625 133.195312 C 262.609375 133.898438 263.003906 134.851562 263.003906 135.847656 L 263.003906 302.222656 C 263.003906 303.214844 262.609375 304.167969 261.90625 304.871094 C 261.199219 305.574219 260.246094 305.972656 259.253906 305.972656 Z M 259.253906 305.972656 "></path></clipPath><clipPath id="f379709fd0"><path d="M 111.976562 108.738281 L 162.320312 108.738281 L 162.320312 305.972656 L 111.976562 305.972656 Z M 111.976562 108.738281 "></path></clipPath><clipPath id="8db7893ae1"><path d="M 158.570312 305.972656 L 115.726562 305.972656 C 114.734375 305.972656 113.78125 305.578125 113.078125 304.875 C 112.375 304.171875 111.976562 303.21875 111.976562 302.222656 L 111.976562 112.625 C 111.976562 111.632812 112.375 110.675781 113.078125 109.972656 C 113.78125 109.269531 114.734375 108.875 115.726562 108.875 L 158.570312 108.875 C 159.5625 108.875 160.519531 109.269531 161.222656 109.972656 C 161.925781 110.675781 162.320312 111.632812 162.320312 112.625 L 162.320312 302.222656 C 162.320312 303.21875 161.925781 304.171875 161.222656 304.875 C 160.519531 305.578125 159.5625 305.972656 158.570312 305.972656 Z M 158.570312 305.972656 "></path></clipPath><clipPath id="d55431ab7a"><path d="M 112 69.027344 L 187.3125 69.027344 L 187.3125 119.851562 L 112 119.851562 Z M 112 69.027344 "></path></clipPath><clipPath id="c191ad06e7"><path d="M 187.3125 72.777344 L 187.3125 116.101562 C 187.3125 117.097656 186.917969 118.050781 186.214844 118.753906 C 185.511719 119.457031 184.554688 119.851562 183.5625 119.851562 L 115.730469 119.851562 C 114.738281 119.851562 113.785156 119.457031 113.082031 118.753906 C 112.378906 118.050781 111.980469 117.097656 111.980469 116.101562 L 111.980469 72.777344 C 111.980469 71.785156 112.378906 70.832031 113.082031 70.128906 C 113.785156 69.425781 114.738281 69.027344 115.730469 69.027344 L 183.5625 69.027344 C 184.554688 69.027344 185.511719 69.425781 186.214844 70.128906 C 186.917969 70.832031 187.3125 71.785156 187.3125 72.777344 Z M 187.3125 72.777344 "></path></clipPath><clipPath id="8f25002ae9"><path d="M 91.523438 170.179688 L 283.648438 170.179688 L 283.648438 220.519531 L 91.523438 220.519531 Z M 91.523438 170.179688 "></path></clipPath><clipPath id="2537991560"><path d="M 91.523438 216.769531 L 91.523438 173.929688 C 91.523438 172.933594 91.917969 171.980469 92.621094 171.277344 C 93.324219 170.574219 94.28125 170.179688 95.273438 170.179688 L 279.726562 170.179688 C 280.722656 170.179688 281.675781 170.574219 282.378906 171.277344 C 283.082031 171.980469 283.476562 172.933594 283.476562 173.929688 L 283.476562 216.769531 C 283.476562 217.765625 283.082031 218.71875 282.378906 219.421875 C 281.675781 220.125 280.722656 220.519531 279.726562 220.519531 L 95.273438 220.519531 C 94.28125 220.519531 93.324219 220.125 92.621094 219.421875 C 91.917969 218.71875 91.523438 217.765625 91.523438 216.769531 Z M 91.523438 216.769531 "></path></clipPath><clipPath id="00e0dda684"><path d="M 137.097656 257.40625 L 187.472656 257.40625 L 187.472656 305.890625 L 137.097656 305.890625 Z M 137.097656 257.40625 "></path></clipPath><clipPath id="536c969945"><path d="M 140.847656 257.40625 L 183.566406 257.40625 C 185.636719 257.40625 187.316406 259.085938 187.316406 261.15625 L 187.316406 302.140625 C 187.316406 304.210938 185.636719 305.890625 183.566406 305.890625 L 140.847656 305.890625 C 138.777344 305.890625 137.097656 304.210938 137.097656 302.140625 L 137.097656 261.15625 C 137.097656 259.085938 138.777344 257.40625 140.847656 257.40625 Z M 140.847656 257.40625 "></path></clipPath><clipPath id="0aded19de4"><path d="M 137.160156 194.996094 L 187.316406 194.996094 L 187.316406 245.152344 L 137.160156 245.152344 Z M 137.160156 194.996094 "></path></clipPath><clipPath id="c8262cb47d"><path d="M 162.238281 194.996094 C 148.386719 194.996094 137.160156 206.222656 137.160156 220.074219 C 137.160156 233.925781 148.386719 245.152344 162.238281 245.152344 C 176.089844 245.152344 187.316406 233.925781 187.316406 220.074219 C 187.316406 206.222656 176.089844 194.996094 162.238281 194.996094 Z M 162.238281 194.996094 "></path></clipPath></defs><g id="61cfdee310"><rect x="0" width="375" y="0" height="374.999991" style="fill:#ffffff;fill-opacity:1;stroke:none;"></rect><rect x="0" width="375" y="0" height="374.999991" style="fill:#e7a034;fill-opacity:1;stroke:none;"></rect><g clip-rule="nonzero" clip-path="url(#988b1bfff8)"><path style=" stroke:none;fill-rule:nonzero;fill:#e7a034;fill-opacity:1;" d="M 208.921875 117.992188 L 264.753906 117.992188 L 264.753906 132.101562 L 208.921875 132.101562 Z M 208.921875 117.992188 "></path></g><g clip-rule="nonzero" clip-path="url(#966a30bcb1)"><g clip-rule="nonzero" clip-path="url(#41e7c23676)"><path style=" stroke:none;fill-rule:nonzero;fill:#ffffff;fill-opacity:1;" d="M 211.660156 69.503906 L 262 69.503906 L 262 119.847656 L 211.660156 119.847656 Z M 211.660156 69.503906 "></path></g></g><g clip-rule="nonzero" clip-path="url(#37f8ef3fc6)"><g clip-rule="nonzero" clip-path="url(#d49e79aed6)"><path style=" stroke:none;fill-rule:nonzero;fill:#ffffff;fill-opacity:1;" d="M 263.003906 305.972656 L 212.660156 305.972656 L 212.660156 132.136719 L 263.003906 132.136719 Z M 263.003906 305.972656 "></path></g></g><g clip-rule="nonzero" clip-path="url(#f379709fd0)"><g clip-rule="nonzero" clip-path="url(#8db7893ae1)"><path style=" stroke:none;fill-rule:nonzero;fill:#ffffff;fill-opacity:1;" d="M 162.320312 305.972656 L 111.976562 305.972656 L 111.976562 108.933594 L 162.320312 108.933594 Z M 162.320312 305.972656 "></path></g></g><g clip-rule="nonzero" clip-path="url(#d55431ab7a)"><g clip-rule="nonzero" clip-path="url(#c191ad06e7)"><path style=" stroke:none;fill-rule:nonzero;fill:#ffffff;fill-opacity:1;" d="M 187.3125 69.027344 L 187.3125 119.851562 L 112.070312 119.851562 L 112.070312 69.027344 Z M 187.3125 69.027344 "></path></g></g><g clip-rule="nonzero" clip-path="url(#8f25002ae9)"><g clip-rule="nonzero" clip-path="url(#2537991560)"><path style=" stroke:none;fill-rule:nonzero;fill:#ffffff;fill-opacity:1;" d="M 91.523438 220.519531 L 91.523438 170.179688 L 283.453125 170.179688 L 283.453125 220.519531 Z M 91.523438 220.519531 "></path></g></g><g clip-rule="nonzero" clip-path="url(#00e0dda684)"><g clip-rule="nonzero" clip-path="url(#536c969945)"><path style=" stroke:none;fill-rule:nonzero;fill:#545454;fill-opacity:1;" d="M 137.097656 257.40625 L 187.285156 257.40625 L 187.285156 305.890625 L 137.097656 305.890625 Z M 137.097656 257.40625 "></path></g></g><g clip-rule="nonzero" clip-path="url(#0aded19de4)"><g clip-rule="nonzero" clip-path="url(#c8262cb47d)"><path style=" stroke:none;fill-rule:nonzero;fill:#545454;fill-opacity:1;" d="M 137.160156 194.996094 L 187.316406 194.996094 L 187.316406 245.152344 L 137.160156 245.152344 Z M 137.160156 194.996094 "></path></g></g></g></svg></svg></g></g></svg></g><g id="dark-icon"><svg xmlns="http://www.w3.org/2000/svg" version="1.1" xmlns:xlink="http://www.w3.org/1999/xlink" width="1000" height="1000"><g><g transform="matrix(2,0,0,2,0,0)"><svg xmlns="http://www.w3.org/2000/svg" version="1.1" xmlns:xlink="http://www.w3.org/1999/xlink" width="500" height="500"><svg xmlns="http://www.w3.org/2000/svg" xmlns:xlink="http://www.w3.org/1999/xlink" width="500" zoomAndPan="magnify" viewBox="0 0 375 374.999991" height="500" preserveAspectRatio="xMidYMid meet" version="1.2"><defs><clipPath id="22af7134f3"><path d="M 3.75 0 L 371.25 0 C 372.246094 0 373.199219 0.394531 373.902344 1.097656 C 374.605469 1.800781 375 2.753906 375 3.75 L 375 371.25 C 375 372.246094 374.605469 373.199219 373.902344 373.902344 C 373.199219 374.605469 372.246094 375 371.25 375 L 3.75 375 C 2.753906 375 1.800781 374.605469 1.097656 373.902344 C 0.394531 373.199219 0 372.246094 0 371.25 L 0 3.75 C 0 2.753906 0.394531 1.800781 1.097656 1.097656 C 1.800781 0.394531 2.753906 0 3.75 0 Z M 3.75 0 "></path></clipPath><clipPath id="64e85fa091"><path d="M 95.699219 276.132812 L 294.535156 276.132812 L 294.535156 288.78125 L 95.699219 288.78125 Z M 95.699219 276.132812 "></path></clipPath><clipPath id="818acd4eec"><path d="M 210.628906 119.777344 L 266.445312 119.777344 L 266.445312 133.886719 L 210.628906 133.886719 Z M 210.628906 119.777344 "></path></clipPath><clipPath id="be36dea473"><path d="M 212.851562 67.238281 L 261.671875 67.238281 L 261.671875 116.054688 L 212.851562 116.054688 Z M 212.851562 67.238281 "></path></clipPath><clipPath id="2be799964d"><path d="M 237.261719 67.238281 C 223.78125 67.238281 212.851562 78.167969 212.851562 91.648438 C 212.851562 105.128906 223.78125 116.054688 237.261719 116.054688 C 250.742188 116.054688 261.671875 105.128906 261.671875 91.648438 C 261.671875 78.167969 250.742188 67.238281 237.261719 67.238281 Z M 237.261719 67.238281 "></path></clipPath><clipPath id="5dd810ac33"><path d="M 211.320312 124.675781 L 261.660156 124.675781 L 261.660156 307.753906 L 211.320312 307.753906 Z M 211.320312 124.675781 "></path></clipPath><clipPath id="2286f7b187"><path d="M 257.910156 307.753906 L 215.070312 307.753906 C 214.074219 307.753906 213.121094 307.355469 212.417969 306.652344 C 211.714844 305.949219 211.320312 304.996094 211.320312 304.003906 L 211.320312 128.609375 C 211.320312 127.617188 211.714844 126.660156 212.417969 125.957031 C 213.121094 125.253906 214.074219 124.859375 215.070312 124.859375 L 257.910156 124.859375 C 258.90625 124.859375 259.859375 125.253906 260.5625 125.957031 C 261.265625 126.660156 261.660156 127.617188 261.660156 128.609375 L 261.660156 304.003906 C 261.660156 304.996094 261.265625 305.949219 260.5625 306.652344 C 259.859375 307.355469 258.90625 307.753906 257.910156 307.753906 Z M 257.910156 307.753906 "></path></clipPath><clipPath id="d5fc6ea075"><path d="M 113.683594 110.523438 L 164.027344 110.523438 L 164.027344 307.761719 L 113.683594 307.761719 Z M 113.683594 110.523438 "></path></clipPath><clipPath id="8e4f6497eb"><path d="M 160.277344 307.761719 L 117.433594 307.761719 C 116.441406 307.761719 115.484375 307.367188 114.78125 306.660156 C 114.078125 305.957031 113.683594 305.003906 113.683594 304.011719 L 113.683594 114.410156 C 113.683594 113.417969 114.078125 112.464844 114.78125 111.761719 C 115.484375 111.058594 116.441406 110.660156 117.433594 110.660156 L 160.277344 110.660156 C 161.269531 110.660156 162.222656 111.058594 162.925781 111.761719 C 163.628906 112.464844 164.027344 113.417969 164.027344 114.410156 L 164.027344 304.011719 C 164.027344 305.003906 163.628906 305.957031 162.925781 306.660156 C 162.222656 307.367188 161.269531 307.761719 160.277344 307.761719 Z M 160.277344 307.761719 "></path></clipPath><clipPath id="b0820073ea"><path d="M 139.773438 251.820312 L 191.664062 251.820312 L 191.664062 307.765625 L 139.773438 307.765625 Z M 139.773438 251.820312 "></path></clipPath><clipPath id="3c1035fc85"><path d="M 143.523438 251.820312 L 187.914062 251.820312 C 189.984375 251.820312 191.664062 253.496094 191.664062 255.570312 L 191.664062 304.011719 C 191.664062 306.082031 189.984375 307.761719 187.914062 307.761719 L 143.523438 307.761719 C 141.449219 307.761719 139.773438 306.082031 139.773438 304.011719 L 139.773438 255.570312 C 139.773438 253.496094 141.449219 251.820312 143.523438 251.820312 Z M 143.523438 251.820312 "></path></clipPath><clipPath id="3def7be419"><path d="M 190.140625 67.207031 L 211.328125 67.207031 L 211.328125 168.347656 L 190.140625 168.347656 Z M 190.140625 67.207031 "></path></clipPath><clipPath id="19e1cda26b"><path d="M 207.578125 168.347656 L 193.890625 168.347656 C 192.894531 168.347656 191.941406 167.953125 191.238281 167.25 C 190.535156 166.546875 190.140625 165.59375 190.140625 164.597656 L 190.140625 70.988281 C 190.140625 69.992188 190.535156 69.039062 191.238281 68.335938 C 191.941406 67.632812 192.894531 67.238281 193.890625 67.238281 L 207.578125 67.238281 C 208.574219 67.238281 209.527344 67.632812 210.230469 68.335938 C 210.933594 69.039062 211.328125 69.992188 211.328125 70.988281 L 211.328125 164.597656 C 211.328125 165.59375 210.933594 166.546875 210.230469 167.25 C 209.527344 167.953125 208.574219 168.347656 207.578125 168.347656 Z M 207.578125 168.347656 "></path></clipPath><clipPath id="d6f10befc1"><path d="M 113.632812 72.550781 L 190.859375 72.550781 L 190.859375 123.371094 L 113.632812 123.371094 Z M 113.632812 72.550781 "></path></clipPath><clipPath id="d8b4e1567d"><path d="M 190.859375 76.300781 L 190.859375 119.621094 C 190.859375 120.617188 190.464844 121.570312 189.761719 122.273438 C 189.058594 122.976562 188.101562 123.371094 187.109375 123.371094 L 117.4375 123.371094 C 116.441406 123.371094 115.488281 122.976562 114.785156 122.273438 C 114.082031 121.570312 113.6875 120.617188 113.6875 119.621094 L 113.6875 76.300781 C 113.6875 75.304688 114.082031 74.351562 114.785156 73.648438 C 115.488281 72.945312 116.441406 72.550781 117.4375 72.550781 L 187.109375 72.550781 C 188.101562 72.550781 189.058594 72.945312 189.761719 73.648438 C 190.464844 74.351562 190.859375 75.304688 190.859375 76.300781 Z M 190.859375 76.300781 "></path></clipPath><clipPath id="54b5ff1ca2"><path d="M 281.925781 145.851562 L 304.054688 145.851562 L 304.054688 298.773438 L 281.925781 298.773438 Z M 281.925781 145.851562 "></path></clipPath><clipPath id="624a584903"><path d="M 300.304688 298.773438 L 285.675781 298.773438 C 284.679688 298.773438 283.726562 298.378906 283.023438 297.675781 C 282.320312 296.972656 281.925781 296.019531 281.925781 295.023438 L 281.925781 149.605469 C 281.925781 148.613281 282.320312 147.65625 283.023438 146.953125 C 283.726562 146.25 284.679688 145.855469 285.675781 145.855469 L 300.304688 145.855469 C 301.300781 145.855469 302.253906 146.25 302.957031 146.953125 C 303.660156 147.65625 304.054688 148.613281 304.054688 149.605469 L 304.054688 295.023438 C 304.054688 296.019531 303.660156 296.972656 302.957031 297.675781 C 302.253906 298.378906 301.300781 298.773438 300.304688 298.773438 Z M 300.304688 298.773438 "></path></clipPath><clipPath id="03f8627dcb"><path d="M 92.253906 171.964844 L 283 171.964844 L 283 222.304688 L 92.253906 222.304688 Z M 92.253906 171.964844 "></path></clipPath><clipPath id="a8e293301d"><path d="M 92.253906 218.554688 L 92.253906 175.714844 C 92.253906 174.71875 92.648438 173.765625 93.351562 173.0625 C 94.054688 172.359375 95.011719 171.964844 96.003906 171.964844 L 279.109375 171.964844 C 280.101562 171.964844 281.058594 172.359375 281.761719 173.0625 C 282.464844 173.765625 282.859375 174.71875 282.859375 175.714844 L 282.859375 218.554688 C 282.859375 219.550781 282.464844 220.503906 281.761719 221.207031 C 281.058594 221.910156 280.101562 222.304688 279.109375 222.304688 L 96.003906 222.304688 C 95.011719 222.304688 94.054688 221.910156 93.351562 221.207031 C 92.648438 220.503906 92.253906 219.550781 92.253906 218.554688 Z M 92.253906 218.554688 "></path></clipPath><clipPath id="683bd351d6"><path d="M 139.773438 195.371094 L 188.589844 195.371094 L 188.589844 244.1875 L 139.773438 244.1875 Z M 139.773438 195.371094 "></path></clipPath><clipPath id="7ebf2aae2b"><path d="M 164.179688 195.371094 C 150.699219 195.371094 139.773438 206.300781 139.773438 219.78125 C 139.773438 233.261719 150.699219 244.1875 164.179688 244.1875 C 177.660156 244.1875 188.589844 233.261719 188.589844 219.78125 C 188.589844 206.300781 177.660156 195.371094 164.179688 195.371094 Z M 164.179688 195.371094 "></path></clipPath></defs><g id="3e076de454"><rect x="0" width="375" y="0" height="374.999991" style="fill:#ffffff;fill-opacity:1;stroke:none;"></rect><rect x="0" width="375" y="0" height="374.999991" style="fill:#ffffff;fill-opacity:1;stroke:none;"></rect><g clip-rule="nonzero" clip-path="url(#22af7134f3)"><rect x="0" width="375" y="0" height="374.999991" style="fill:#37322f;fill-opacity:1;stroke:none;"></rect></g><g clip-rule="nonzero" clip-path="url(#64e85fa091)"><path style=" stroke:none;fill-rule:nonzero;fill:#37322f;fill-opacity:1;" d="M 95.699219 288.78125 L 95.699219 276.132812 L 294.519531 276.132812 L 294.519531 288.78125 Z M 95.699219 288.78125 "></path></g><g clip-rule="nonzero" clip-path="url(#818acd4eec)"><path style=" stroke:none;fill-rule:nonzero;fill:#37322f;fill-opacity:1;" d="M 210.628906 119.777344 L 266.457031 119.777344 L 266.457031 133.886719 L 210.628906 133.886719 Z M 210.628906 119.777344 "></path></g><g clip-rule="nonzero" clip-path="url(#be36dea473)"><g clip-rule="nonzero" clip-path="url(#2be799964d)"><path style=" stroke:none;fill-rule:nonzero;fill:#f6f6f6;fill-opacity:1;" d="M 212.851562 67.238281 L 261.671875 67.238281 L 261.671875 116.054688 L 212.851562 116.054688 Z M 212.851562 67.238281 "></path></g></g><g clip-rule="nonzero" clip-path="url(#5dd810ac33)"><g clip-rule="nonzero" clip-path="url(#2286f7b187)"><path style=" stroke:none;fill-rule:nonzero;fill:#f6f6f6;fill-opacity:1;" d="M 261.660156 307.753906 L 211.320312 307.753906 L 211.320312 124.871094 L 261.660156 124.871094 Z M 261.660156 307.753906 "></path></g></g><g clip-rule="nonzero" clip-path="url(#d5fc6ea075)"><g clip-rule="nonzero" clip-path="url(#8e4f6497eb)"><path style=" stroke:none;fill-rule:nonzero;fill:#f6f6f6;fill-opacity:1;" d="M 164.027344 307.761719 L 113.683594 307.761719 L 113.683594 110.71875 L 164.027344 110.71875 Z M 164.027344 307.761719 "></path></g></g><g clip-rule="nonzero" clip-path="url(#b0820073ea)"><g clip-rule="nonzero" clip-path="url(#3c1035fc85)"><path style=" stroke:none;fill-rule:nonzero;fill:#f69b00;fill-opacity:1;" d="M 139.773438 251.820312 L 191.664062 251.820312 L 191.664062 307.765625 L 139.773438 307.765625 Z M 139.773438 251.820312 "></path></g></g><g clip-rule="nonzero" clip-path="url(#3def7be419)"><g clip-rule="nonzero" clip-path="url(#19e1cda26b)"><path style=" stroke:none;fill-rule:nonzero;fill:#37322f;fill-opacity:1;" d="M 211.328125 168.347656 L 190.140625 168.347656 L 190.140625 67.207031 L 211.328125 67.207031 Z M 211.328125 168.347656 "></path></g></g><g clip-rule="nonzero" clip-path="url(#d6f10befc1)"><g clip-rule="nonzero" clip-path="url(#d8b4e1567d)"><path style=" stroke:none;fill-rule:nonzero;fill:#f6f6f6;fill-opacity:1;" d="M 190.859375 72.550781 L 190.859375 123.371094 L 113.632812 123.371094 L 113.632812 72.550781 Z M 190.859375 72.550781 "></path></g></g><g clip-rule="nonzero" clip-path="url(#54b5ff1ca2)"><g clip-rule="nonzero" clip-path="url(#624a584903)"><path style=" stroke:none;fill-rule:nonzero;fill:#37322f;fill-opacity:1;" d="M 304.054688 298.773438 L 281.925781 298.773438 L 281.925781 145.851562 L 304.054688 145.851562 Z M 304.054688 298.773438 "></path></g></g><g clip-rule="nonzero" clip-path="url(#03f8627dcb)"><g clip-rule="nonzero" clip-path="url(#a8e293301d)"><path style=" stroke:none;fill-rule:nonzero;fill:#f6f6f6;fill-opacity:1;" d="M 92.253906 222.304688 L 92.253906 171.964844 L 282.804688 171.964844 L 282.804688 222.304688 Z M 92.253906 222.304688 "></path></g></g><g clip-rule="nonzero" clip-path="url(#683bd351d6)"><g clip-rule="nonzero" clip-path="url(#7ebf2aae2b)"><path style=" stroke:none;fill-rule:nonzero;fill:#f69b00;fill-opacity:1;" d="M 139.773438 195.371094 L 188.589844 195.371094 L 188.589844 244.1875 L 139.773438 244.1875 Z M 139.773438 195.371094 "></path></g></g></g></svg></svg></g></g></svg></g></svg>