<svg xmlns="http://www.w3.org/2000/svg" xmlns:xlink="http://www.w3.org/1999/xlink" width="500" zoomAndPan="magnify" viewBox="0 0 375 374.999991" height="500" preserveAspectRatio="xMidYMid meet" version="1.2"><defs><clipPath id="5865dc7540"><path d="M 3.75 0 L 371.25 0 C 372.246094 0 373.199219 0.394531 373.902344 1.097656 C 374.605469 1.800781 375 2.753906 375 3.75 L 375 371.25 C 375 372.246094 374.605469 373.199219 373.902344 373.902344 C 373.199219 374.605469 372.246094 375 371.25 375 L 3.75 375 C 2.753906 375 1.800781 374.605469 1.097656 373.902344 C 0.394531 373.199219 0 372.246094 0 371.25 L 0 3.75 C 0 2.753906 0.394531 1.800781 1.097656 1.097656 C 1.800781 0.394531 2.753906 0 3.75 0 Z M 3.75 0 "/></clipPath><clipPath id="a04cc8aa14"><path d="M 210.628906 83.042969 L 266.445312 83.042969 L 266.445312 97.152344 L 210.628906 97.152344 Z M 210.628906 83.042969 "/></clipPath><clipPath id="35ef3e3bca"><path d="M 95.699219 276.132812 L 294.535156 276.132812 L 294.535156 288.78125 L 95.699219 288.78125 Z M 95.699219 276.132812 "/></clipPath><clipPath id="94c481d890"><path d="M 212.851562 30.503906 L 261.671875 30.503906 L 261.671875 79.320312 L 212.851562 79.320312 Z M 212.851562 30.503906 "/></clipPath><clipPath id="405c5e3949"><path d="M 237.261719 30.503906 C 223.78125 30.503906 212.851562 41.433594 212.851562 54.914062 C 212.851562 68.394531 223.78125 79.320312 237.261719 79.320312 C 250.742188 79.320312 261.671875 68.394531 261.671875 54.914062 C 261.671875 41.433594 250.742188 30.503906 237.261719 30.503906 Z M 237.261719 30.503906 "/></clipPath><clipPath id="03547c7819"><path d="M 211.320312 88 L 261.660156 88 L 261.660156 271.015625 L 211.320312 271.015625 Z M 211.320312 88 "/></clipPath><clipPath id="6803708c3c"><path d="M 257.910156 271.015625 L 215.070312 271.015625 C 214.074219 271.015625 213.121094 270.621094 212.417969 269.917969 C 211.714844 269.214844 211.320312 268.261719 211.320312 267.265625 L 211.320312 91.875 C 211.320312 90.878906 211.714844 89.925781 212.417969 89.222656 C 213.121094 88.519531 214.074219 88.125 215.070312 88.125 L 257.910156 88.125 C 258.90625 88.125 259.859375 88.519531 260.5625 89.222656 C 261.265625 89.925781 261.660156 90.878906 261.660156 91.875 L 261.660156 267.265625 C 261.660156 268.261719 261.265625 269.214844 260.5625 269.917969 C 259.859375 270.621094 258.90625 271.015625 257.910156 271.015625 Z M 257.910156 271.015625 "/></clipPath><clipPath id="c9fcd5444e"><path d="M 113.683594 73.789062 L 164.027344 73.789062 L 164.027344 271.023438 L 113.683594 271.023438 Z M 113.683594 73.789062 "/></clipPath><clipPath id="92a8c2428e"><path d="M 160.277344 271.023438 L 117.433594 271.023438 C 116.441406 271.023438 115.484375 270.628906 114.78125 269.925781 C 114.078125 269.222656 113.683594 268.269531 113.683594 267.273438 L 113.683594 77.675781 C 113.683594 76.683594 114.078125 75.726562 114.78125 75.023438 C 115.484375 74.320312 116.441406 73.925781 117.433594 73.925781 L 160.277344 73.925781 C 161.269531 73.925781 162.222656 74.320312 162.925781 75.023438 C 163.628906 75.726562 164.027344 76.683594 164.027344 77.675781 L 164.027344 267.273438 C 164.027344 268.269531 163.628906 269.222656 162.925781 269.925781 C 162.222656 270.628906 161.269531 271.023438 160.277344 271.023438 Z M 160.277344 271.023438 "/></clipPath><clipPath id="9c7b3f705e"><path d="M 139.773438 215.082031 L 191.664062 215.082031 L 191.664062 271.03125 L 139.773438 271.03125 Z M 139.773438 215.082031 "/></clipPath><clipPath id="7a945197e8"><path d="M 143.523438 215.082031 L 187.914062 215.082031 C 189.984375 215.082031 191.664062 216.761719 191.664062 218.832031 L 191.664062 267.277344 C 191.664062 269.347656 189.984375 271.027344 187.914062 271.027344 L 143.523438 271.027344 C 141.449219 271.027344 139.773438 269.347656 139.773438 267.277344 L 139.773438 218.832031 C 139.773438 216.761719 141.449219 215.082031 143.523438 215.082031 Z M 143.523438 215.082031 "/></clipPath><clipPath id="2f3869a430"><path d="M 190.140625 30.472656 L 211.328125 30.472656 L 211.328125 131.613281 L 190.140625 131.613281 Z M 190.140625 30.472656 "/></clipPath><clipPath id="9d70a8c01c"><path d="M 207.578125 131.613281 L 193.890625 131.613281 C 192.894531 131.613281 191.941406 131.21875 191.238281 130.515625 C 190.535156 129.8125 190.140625 128.859375 190.140625 127.863281 L 190.140625 34.253906 C 190.140625 33.257812 190.535156 32.304688 191.238281 31.601562 C 191.941406 30.898438 192.894531 30.503906 193.890625 30.503906 L 207.578125 30.503906 C 208.574219 30.503906 209.527344 30.898438 210.230469 31.601562 C 210.933594 32.304688 211.328125 33.257812 211.328125 34.253906 L 211.328125 127.863281 C 211.328125 128.859375 210.933594 129.8125 210.230469 130.515625 C 209.527344 131.21875 208.574219 131.613281 207.578125 131.613281 Z M 207.578125 131.613281 "/></clipPath><clipPath id="0c3cc30fdc"><path d="M 113.632812 35.816406 L 190.859375 35.816406 L 190.859375 86.636719 L 113.632812 86.636719 Z M 113.632812 35.816406 "/></clipPath><clipPath id="fb90196248"><path d="M 190.859375 39.566406 L 190.859375 82.886719 C 190.859375 83.882812 190.464844 84.835938 189.761719 85.539062 C 189.058594 86.242188 188.101562 86.636719 187.109375 86.636719 L 117.4375 86.636719 C 116.441406 86.636719 115.488281 86.242188 114.785156 85.539062 C 114.082031 84.835938 113.6875 83.882812 113.6875 82.886719 L 113.6875 39.566406 C 113.6875 38.570312 114.082031 37.617188 114.785156 36.914062 C 115.488281 36.210938 116.441406 35.816406 117.4375 35.816406 L 187.109375 35.816406 C 188.101562 35.816406 189.058594 36.210938 189.761719 36.914062 C 190.464844 37.617188 190.859375 38.570312 190.859375 39.566406 Z M 190.859375 39.566406 "/></clipPath><clipPath id="19c337b4d6"><path d="M 281.925781 109.117188 L 304.054688 109.117188 L 304.054688 262.039062 L 281.925781 262.039062 Z M 281.925781 109.117188 "/></clipPath><clipPath id="b2d76f2828"><path d="M 300.304688 262.039062 L 285.675781 262.039062 C 284.679688 262.039062 283.726562 261.644531 283.023438 260.941406 C 282.320312 260.238281 281.925781 259.285156 281.925781 258.289062 L 281.925781 112.871094 C 281.925781 111.875 282.320312 110.921875 283.023438 110.21875 C 283.726562 109.515625 284.679688 109.121094 285.675781 109.121094 L 300.304688 109.121094 C 301.300781 109.121094 302.253906 109.515625 302.957031 110.21875 C 303.660156 110.921875 304.054688 111.875 304.054688 112.871094 L 304.054688 258.289062 C 304.054688 259.285156 303.660156 260.238281 302.957031 260.941406 C 302.253906 261.644531 301.300781 262.039062 300.304688 262.039062 Z M 300.304688 262.039062 "/></clipPath><clipPath id="9095483d12"><path d="M 92.253906 135.230469 L 283 135.230469 L 283 185.570312 L 92.253906 185.570312 Z M 92.253906 135.230469 "/></clipPath><clipPath id="9f1ee25e5a"><path d="M 92.253906 181.820312 L 92.253906 138.980469 C 92.253906 137.984375 92.648438 137.03125 93.351562 136.328125 C 94.054688 135.625 95.011719 135.230469 96.003906 135.230469 L 279.109375 135.230469 C 280.101562 135.230469 281.058594 135.625 281.761719 136.328125 C 282.464844 137.03125 282.859375 137.984375 282.859375 138.980469 L 282.859375 181.820312 C 282.859375 182.816406 282.464844 183.769531 281.761719 184.472656 C 281.058594 185.175781 280.101562 185.570312 279.109375 185.570312 L 96.003906 185.570312 C 95.011719 185.570312 94.054688 185.175781 93.351562 184.472656 C 92.648438 183.769531 92.253906 182.816406 92.253906 181.820312 Z M 92.253906 181.820312 "/></clipPath><clipPath id="dbdc9c21ea"><path d="M 139.773438 158.636719 L 188.589844 158.636719 L 188.589844 207.453125 L 139.773438 207.453125 Z M 139.773438 158.636719 "/></clipPath><clipPath id="49a84ce2be"><path d="M 164.179688 158.636719 C 150.699219 158.636719 139.773438 169.5625 139.773438 183.042969 C 139.773438 196.527344 150.699219 207.453125 164.179688 207.453125 C 177.660156 207.453125 188.589844 196.527344 188.589844 183.042969 C 188.589844 169.5625 177.660156 158.636719 164.179688 158.636719 Z M 164.179688 158.636719 "/></clipPath></defs><g id="19e727c2cf"><g clip-rule="nonzero" clip-path="url(#5865dc7540)"><rect x="0" width="375" y="0" height="374.999991" style="fill:#ffffff;fill-opacity:1;stroke:none;"/></g><g clip-rule="nonzero" clip-path="url(#a04cc8aa14)"><path style=" stroke:none;fill-rule:nonzero;fill:#ffffff;fill-opacity:1;" d="M 210.628906 83.042969 L 266.457031 83.042969 L 266.457031 97.152344 L 210.628906 97.152344 Z M 210.628906 83.042969 "/></g><g style="fill:#e7a034;fill-opacity:1;"><g transform="translate(86.976339, 327.848804)"><path style="stroke:none" d="M 10.609375 18.296875 L 5.484375 18.296875 L 5.484375 -32.203125 L 10.609375 -32.203125 L 10.609375 -26.703125 C 10.898438 -27.097656 11.21875 -27.46875 11.5625 -27.8125 C 14.582031 -31.21875 18.3125 -32.921875 22.75 -32.921875 C 27.195312 -32.921875 30.957031 -31.21875 34.03125 -27.8125 C 36.957031 -24.488281 38.421875 -20.582031 38.421875 -16.09375 C 38.421875 -11.601562 36.957031 -7.703125 34.03125 -4.390625 C 30.957031 -0.972656 27.195312 0.734375 22.75 0.734375 C 18.3125 0.734375 14.582031 -0.972656 11.5625 -4.390625 C 11.21875 -4.734375 10.898438 -5.097656 10.609375 -5.484375 Z M 33.296875 -16.09375 C 33.296875 -19.21875 32.222656 -21.953125 30.078125 -24.296875 C 27.878906 -26.640625 25.171875 -27.8125 21.953125 -27.8125 C 18.734375 -27.8125 16.050781 -26.640625 13.90625 -24.296875 C 11.707031 -21.953125 10.609375 -19.21875 10.609375 -16.09375 C 10.609375 -12.976562 11.707031 -10.25 13.90625 -7.90625 C 16.050781 -5.5625 18.734375 -4.390625 21.953125 -4.390625 C 25.171875 -4.390625 27.878906 -5.5625 30.078125 -7.90625 C 32.222656 -10.25 33.296875 -12.976562 33.296875 -16.09375 Z M 33.296875 -16.09375 "/></g></g><g style="fill:#e7a034;fill-opacity:1;"><g transform="translate(126.566016, 327.848804)"><path style="stroke:none" d="M 31.09375 -16.09375 C 31.09375 -19.21875 30.019531 -21.953125 27.875 -24.296875 C 25.675781 -26.640625 22.96875 -27.8125 19.75 -27.8125 C 16.53125 -27.8125 13.847656 -26.640625 11.703125 -24.296875 C 9.515625 -21.953125 8.421875 -19.21875 8.421875 -16.09375 C 8.421875 -12.976562 9.515625 -10.25 11.703125 -7.90625 C 13.847656 -5.5625 16.53125 -4.390625 19.75 -4.390625 C 22.96875 -4.390625 25.675781 -5.5625 27.875 -7.90625 C 30.019531 -10.25 31.09375 -12.976562 31.09375 -16.09375 Z M 36.21875 0 L 31.09375 0 L 31.09375 -5.484375 C 30.800781 -5.097656 30.507812 -4.734375 30.21875 -4.390625 C 27.144531 -0.972656 23.390625 0.734375 18.953125 0.734375 C 14.515625 0.734375 10.78125 -0.972656 7.75 -4.390625 C 4.78125 -7.703125 3.296875 -11.601562 3.296875 -16.09375 C 3.296875 -20.582031 4.78125 -24.488281 7.75 -27.8125 C 10.78125 -31.21875 14.515625 -32.921875 18.953125 -32.921875 C 23.390625 -32.921875 27.144531 -31.21875 30.21875 -27.8125 C 30.507812 -27.46875 30.800781 -27.097656 31.09375 -26.703125 L 31.09375 -32.203125 L 36.21875 -32.203125 Z M 36.21875 0 "/></g></g><g style="fill:#e7a034;fill-opacity:1;"><g transform="translate(166.155693, 327.848804)"><path style="stroke:none" d="M 22.03125 -25.53125 C 20.851562 -26.601562 19.582031 -27.140625 18.21875 -27.140625 C 16.90625 -27.140625 15.785156 -26.773438 14.859375 -26.046875 C 13.878906 -25.265625 13.070312 -24.335938 12.4375 -23.265625 C 11.21875 -21.117188 10.609375 -18.726562 10.609375 -16.09375 L 10.609375 0 L 5.484375 0 L 5.484375 -32.203125 L 10.609375 -32.203125 L 10.609375 -25.53125 L 10.828125 -26.859375 C 12.535156 -30.859375 15.195312 -32.859375 18.8125 -32.859375 C 19.925781 -32.859375 21 -32.640625 22.03125 -32.203125 Z M 22.03125 -25.53125 "/></g></g><g style="fill:#e7a034;fill-opacity:1;"><g transform="translate(186.792066, 327.848804)"><path style="stroke:none" d="M 36.953125 -16.828125 L 36.953125 -14.125 L 8.640625 -14.125 C 9.117188 -11.34375 10.457031 -9.070312 12.65625 -7.3125 C 14.90625 -5.507812 17.394531 -4.609375 20.125 -4.609375 C 21.976562 -4.609375 23.757812 -5.046875 25.46875 -5.921875 C 27.125 -6.753906 28.515625 -7.925781 29.640625 -9.4375 L 35.484375 -9.4375 C 34.117188 -6.363281 32.070312 -3.945312 29.34375 -2.1875 C 26.5625 -0.382812 23.753906 0.515625 20.921875 0.515625 C 18.046875 0.515625 15.609375 0.0703125 13.609375 -0.8125 C 11.554688 -1.6875 9.773438 -2.878906 8.265625 -4.390625 C 4.953125 -7.609375 3.296875 -11.5625 3.296875 -16.25 C 3.296875 -20.882812 4.953125 -24.859375 8.265625 -28.171875 C 11.535156 -31.441406 15.488281 -33.078125 20.125 -33.078125 C 24.613281 -33.078125 28.539062 -31.488281 31.90625 -28.3125 C 35.269531 -25.09375 36.953125 -21.265625 36.953125 -16.828125 Z M 31.53125 -18.515625 C 30.945312 -21.242188 29.582031 -23.507812 27.4375 -25.3125 C 25.289062 -27.070312 22.851562 -27.953125 20.125 -27.953125 C 15.925781 -27.953125 12.632812 -26.070312 10.25 -22.3125 C 9.507812 -21.144531 8.992188 -19.878906 8.703125 -18.515625 Z M 31.53125 -18.515625 "/></g></g><g style="fill:#e7a034;fill-opacity:1;"><g transform="translate(224.55227, 327.848804)"><path style="stroke:none" d="M 27.734375 0 L 27.734375 -20.125 C 27.734375 -22.21875 27.269531 -24.019531 26.34375 -25.53125 C 25.363281 -27 23.773438 -27.734375 21.578125 -27.734375 C 19.390625 -27.734375 17.613281 -27.316406 16.25 -26.484375 C 14.882812 -25.660156 13.785156 -24.585938 12.953125 -23.265625 C 11.390625 -20.828125 10.609375 -17.5625 10.609375 -13.46875 L 10.609375 0 L 5.484375 0 L 5.484375 -32.203125 L 10.609375 -32.203125 L 10.609375 -26.640625 C 11.679688 -28.441406 13.046875 -29.925781 14.703125 -31.09375 C 16.460938 -32.269531 18.488281 -32.859375 20.78125 -32.859375 C 23.070312 -32.859375 24.925781 -32.539062 26.34375 -31.90625 C 27.757812 -31.21875 28.953125 -30.316406 29.921875 -29.203125 C 31.878906 -26.898438 32.859375 -23.875 32.859375 -20.125 L 32.859375 0 Z M 27.734375 0 "/></g></g><g style="fill:#e7a034;fill-opacity:1;"><g transform="translate(259.678035, 327.848804)"><path style="stroke:none" d="M 1.46875 -27.4375 L 1.46875 -32.203125 L 9.515625 -32.203125 L 9.515625 -44.703125 L 14.640625 -44.703125 L 14.640625 -32.203125 L 22.609375 -32.203125 L 22.609375 -27.4375 L 14.640625 -27.4375 L 14.640625 0 L 9.515625 0 L 9.515625 -27.4375 Z M 1.46875 -27.4375 "/></g></g><g clip-rule="nonzero" clip-path="url(#35ef3e3bca)"><path style=" stroke:none;fill-rule:nonzero;fill:#ffffff;fill-opacity:1;" d="M 95.699219 288.78125 L 95.699219 276.132812 L 294.519531 276.132812 L 294.519531 288.78125 Z M 95.699219 288.78125 "/></g><g clip-rule="nonzero" clip-path="url(#94c481d890)"><g clip-rule="nonzero" clip-path="url(#405c5e3949)"><path style=" stroke:none;fill-rule:nonzero;fill:#e7a034;fill-opacity:1;" d="M 212.851562 30.503906 L 261.671875 30.503906 L 261.671875 79.320312 L 212.851562 79.320312 Z M 212.851562 30.503906 "/></g></g><g clip-rule="nonzero" clip-path="url(#03547c7819)"><g clip-rule="nonzero" clip-path="url(#6803708c3c)"><path style=" stroke:none;fill-rule:nonzero;fill:#e7a034;fill-opacity:1;" d="M 261.660156 271.015625 L 211.320312 271.015625 L 211.320312 88.136719 L 261.660156 88.136719 Z M 261.660156 271.015625 "/></g></g><g clip-rule="nonzero" clip-path="url(#c9fcd5444e)"><g clip-rule="nonzero" clip-path="url(#92a8c2428e)"><path style=" stroke:none;fill-rule:nonzero;fill:#e7a034;fill-opacity:1;" d="M 164.027344 271.023438 L 113.683594 271.023438 L 113.683594 73.984375 L 164.027344 73.984375 Z M 164.027344 271.023438 "/></g></g><g clip-rule="nonzero" clip-path="url(#9c7b3f705e)"><g clip-rule="nonzero" clip-path="url(#7a945197e8)"><path style=" stroke:none;fill-rule:nonzero;fill:#545454;fill-opacity:1;" d="M 139.773438 215.082031 L 191.664062 215.082031 L 191.664062 271.03125 L 139.773438 271.03125 Z M 139.773438 215.082031 "/></g></g><g clip-rule="nonzero" clip-path="url(#2f3869a430)"><g clip-rule="nonzero" clip-path="url(#9d70a8c01c)"><path style=" stroke:none;fill-rule:nonzero;fill:#ffffff;fill-opacity:1;" d="M 211.328125 131.613281 L 190.140625 131.613281 L 190.140625 30.472656 L 211.328125 30.472656 Z M 211.328125 131.613281 "/></g></g><g clip-rule="nonzero" clip-path="url(#0c3cc30fdc)"><g clip-rule="nonzero" clip-path="url(#fb90196248)"><path style=" stroke:none;fill-rule:nonzero;fill:#e7a034;fill-opacity:1;" d="M 190.859375 35.816406 L 190.859375 86.636719 L 113.632812 86.636719 L 113.632812 35.816406 Z M 190.859375 35.816406 "/></g></g><g clip-rule="nonzero" clip-path="url(#19c337b4d6)"><g clip-rule="nonzero" clip-path="url(#b2d76f2828)"><path style=" stroke:none;fill-rule:nonzero;fill:#ffffff;fill-opacity:1;" d="M 304.054688 262.039062 L 281.925781 262.039062 L 281.925781 109.117188 L 304.054688 109.117188 Z M 304.054688 262.039062 "/></g></g><g clip-rule="nonzero" clip-path="url(#9095483d12)"><g clip-rule="nonzero" clip-path="url(#9f1ee25e5a)"><path style=" stroke:none;fill-rule:nonzero;fill:#e7a034;fill-opacity:1;" d="M 92.253906 185.570312 L 92.253906 135.230469 L 282.804688 135.230469 L 282.804688 185.570312 Z M 92.253906 185.570312 "/></g></g><g clip-rule="nonzero" clip-path="url(#dbdc9c21ea)"><g clip-rule="nonzero" clip-path="url(#49a84ce2be)"><path style=" stroke:none;fill-rule:nonzero;fill:#545454;fill-opacity:1;" d="M 139.773438 158.636719 L 188.589844 158.636719 L 188.589844 207.453125 L 139.773438 207.453125 Z M 139.773438 158.636719 "/></g></g></g></svg>